<svg width="14" height="10" viewBox="0 0 14 10" fill="none" xmlns="http://www.w3.org/2000/svg">
<path d="M6.70965 10C5.35887 10 4.00808 10 2.66893 10C1.99354 10 1.749 9.81468 1.56269 9.16606C1.06196 7.41712 0.56124 5.66817 0.0721616 3.90764C0.013938 3.68757 -0.0209961 3.44434 0.013938 3.22427C0.107096 2.73781 0.607819 2.49458 1.13183 2.63357C1.91203 2.84205 2.68058 3.03895 3.46078 3.2706C3.67038 3.32851 3.77518 3.28218 3.89163 3.12003C4.57867 2.2166 5.27735 1.33634 5.97604 0.444487C6.44182 -0.146217 7.04735 -0.146218 7.50149 0.432904C8.20018 1.32475 8.89886 2.2166 9.5859 3.10845C9.72564 3.30535 9.85373 3.31693 10.075 3.25902C10.8202 3.03895 11.5655 2.84205 12.3108 2.64515C13.1026 2.43667 13.6732 2.99262 13.4519 3.78023C12.9396 5.59867 12.4039 7.40553 11.8799 9.22398C11.7169 9.77993 11.4491 9.98842 10.8668 9.98842C9.49274 9.98842 8.10702 9.98842 6.70965 10C6.70965 9.98842 6.70965 9.98842 6.70965 10ZM2.15657 4.71841C2.15657 4.79948 2.14492 4.82265 2.15657 4.8574C2.45933 5.92298 2.77374 6.98857 3.06485 8.05415C3.12308 8.25105 3.22788 8.26263 3.37926 8.26263C5.61505 8.26263 7.86248 8.26263 10.0983 8.26263C10.2846 8.26263 10.3661 8.2163 10.4243 8.03098C10.7038 7.02331 10.9949 6.01564 11.286 5.00797C11.3093 4.92689 11.321 4.84581 11.3443 4.72999C10.797 4.88056 10.2962 5.00797 9.7955 5.15854C9.31807 5.29753 8.94544 5.17012 8.65432 4.77632C8.09538 4.04663 7.52478 3.32851 6.96584 2.59882C6.89597 2.50616 6.8261 2.42508 6.74459 2.32084C6.10413 3.15478 5.47531 3.95397 4.85814 4.75315C4.49716 5.21645 4.22933 5.30911 3.67038 5.14696C3.16966 4.99639 2.68058 4.8574 2.15657 4.71841Z" fill="white"/>
</svg>
