<svg width="93" height="92" viewBox="0 0 93 92" fill="none" xmlns="http://www.w3.org/2000/svg">
<path d="M53.7172 18.4C54.1041 23.7544 54.4727 28.3912 54.7859 33.028C55.3387 41.0872 55.9283 49.1464 56.2784 57.224C56.3337 58.512 55.6704 60.3888 54.6938 61.1064C49.8662 64.6208 44.799 67.8592 39.824 71.1896C39.4371 70.9872 39.0686 70.7664 38.6816 70.564C39.2344 69.552 39.5477 68.2824 40.3584 67.5648C43.3618 64.86 46.6601 62.468 49.5529 59.6712C50.5664 58.696 51.3403 56.8008 51.1929 55.4576C50.3453 47.9504 49.6266 40.3696 47.9499 33.028C46.5311 26.772 49.6082 23 53.7172 18.4Z" fill="url(#paint0_linear_2674_1622)"/>
<path d="M47.2317 59.3216C45.4444 52.716 43.2332 46.1656 42.1277 39.4496C41.7592 37.26 44.2467 34.5736 45.4259 32.1264C45.8866 32.2 46.3472 32.2552 46.7894 32.3288C47.1948 35.42 47.6002 38.4928 48.024 41.584C48.632 46.0736 49.4059 50.5632 49.756 55.0896C49.8666 56.5248 48.9084 58.052 48.4478 59.5424C48.0424 59.4504 47.637 59.3952 47.2317 59.3216Z" fill="url(#paint1_linear_2674_1622)"/>
<path d="M40.9113 41.8232C44.7255 50.416 46.3286 60.0208 44.2464 62.0632C42.3854 57.2792 40.2849 52.6976 38.9213 47.9136C38.4975 46.4232 40.0269 44.3624 40.9113 41.8232Z" fill="url(#paint2_linear_2674_1622)"/>
<path d="M38.5529 50.7656C39.8243 55.292 43.0489 59.34 42.6435 64.2712C42.1091 64.4552 41.5932 64.6392 41.0589 64.8232C39.3637 61.456 37.429 58.1624 36.1023 54.648C35.7153 53.5992 36.9683 51.9432 37.4842 50.5632C37.8527 50.6368 38.2028 50.7104 38.5529 50.7656Z" fill="url(#paint3_linear_2674_1622)"/>
<path d="M35.8995 58.236C40.0453 64.0688 40.377 65.412 38.2764 67.4544C33.9095 62.468 33.3936 60.4808 35.8995 58.236Z" fill="url(#paint4_linear_2674_1622)"/>
<defs>
<linearGradient id="paint0_linear_2674_1622" x1="47.4816" y1="18.4" x2="47.4816" y2="71.1896" gradientUnits="userSpaceOnUse">
<stop stop-color="#F7931A"/>
<stop offset="1" stop-color="#FFE15A"/>
</linearGradient>
<linearGradient id="paint1_linear_2674_1622" x1="45.9278" y1="32.1264" x2="45.9278" y2="59.5424" gradientUnits="userSpaceOnUse">
<stop stop-color="#F7931A"/>
<stop offset="1" stop-color="#FFE15A"/>
</linearGradient>
<linearGradient id="paint2_linear_2674_1622" x1="42.0069" y1="41.8232" x2="42.0069" y2="62.0632" gradientUnits="userSpaceOnUse">
<stop stop-color="#F7931A"/>
<stop offset="1" stop-color="#FFE15A"/>
</linearGradient>
<linearGradient id="paint3_linear_2674_1622" x1="39.3539" y1="50.5632" x2="39.3539" y2="64.8232" gradientUnits="userSpaceOnUse">
<stop stop-color="#F7931A"/>
<stop offset="1" stop-color="#FFE15A"/>
</linearGradient>
<linearGradient id="paint4_linear_2674_1622" x1="36.9689" y1="58.236" x2="36.9689" y2="67.4544" gradientUnits="userSpaceOnUse">
<stop stop-color="#F7931A"/>
<stop offset="1" stop-color="#FFE15A"/>
</linearGradient>
</defs>
</svg>
