<svg width="43" height="43" viewBox="0 0 43 43" fill="none" xmlns="http://www.w3.org/2000/svg">
<g filter="url(#filter0_d_2674_1641)">
<path d="M19.2741 28.0675C20.2987 28.0675 21.1293 28.898 21.1293 29.9226C21.1293 30.9472 20.2987 31.7778 19.2741 31.7778C18.2495 31.7778 17.4189 30.9472 17.4189 29.9226C17.4189 28.898 18.2495 28.0675 19.2741 28.0675Z" stroke="white" stroke-width="2"/>
<path d="M27.4372 28.0675C28.4618 28.0675 29.2923 28.898 29.2923 29.9226C29.2923 30.9472 28.4618 31.7778 27.4372 31.7778C26.4126 31.7778 25.582 30.9472 25.582 29.9226C25.582 28.898 26.4126 28.0675 27.4372 28.0675Z" stroke="white" stroke-width="2"/>
<path d="M15.1924 21.0179C15.1924 19.2933 15.1943 18.0905 15.3141 17.183C15.4305 16.3014 15.6435 15.8346 15.9701 15.5021C16.2967 15.1696 16.7553 14.9528 17.6212 14.8343C18.5127 14.7122 19.6941 14.7103 21.3881 14.7103H24.8308C26.7979 14.7103 28.1782 14.7125 29.2041 14.8607C30.2054 15.0054 30.7057 15.2691 31.0361 15.6663C31.3666 16.0634 31.5399 16.6091 31.5155 17.6385C31.4905 18.693 31.2656 20.0794 30.9422 22.0548C30.703 23.516 30.5354 24.5294 30.3133 25.2891C30.0983 26.0245 29.8607 26.4136 29.5463 26.6848C29.2318 26.956 28.8158 27.1305 28.0679 27.2256C27.2954 27.3237 26.286 27.3254 24.8308 27.3254H21.3881C19.6941 27.3254 18.5127 27.3235 17.6212 27.2015C16.7553 27.083 16.2967 26.8662 15.9701 26.5337C15.6435 26.2011 15.4305 25.7343 15.3141 24.8527C15.1943 23.9452 15.1924 22.7424 15.1924 21.0179Z" stroke="white" stroke-width="2"/>
<path d="M15.1927 20.6468V13.2698C15.1927 12.0162 14.1705 11 12.9095 11H11.4824" stroke="white" stroke-width="2" stroke-linecap="round"/>
</g>
<defs>
<filter id="filter0_d_2674_1641" x="0.482422" y="0" width="42.0352" height="42.7778" filterUnits="userSpaceOnUse" color-interpolation-filters="sRGB">
<feFlood flood-opacity="0" result="BackgroundImageFix"/>
<feColorMatrix in="SourceAlpha" type="matrix" values="0 0 0 0 0 0 0 0 0 0 0 0 0 0 0 0 0 0 127 0" result="hardAlpha"/>
<feOffset/>
<feGaussianBlur stdDeviation="5"/>
<feColorMatrix type="matrix" values="0 0 0 0 0 0 0 0 0 0 0 0 0 0 0 0 0 0 1 0"/>
<feBlend mode="normal" in2="BackgroundImageFix" result="effect1_dropShadow_2674_1641"/>
<feBlend mode="normal" in="SourceGraphic" in2="effect1_dropShadow_2674_1641" result="shape"/>
</filter>
</defs>
</svg>
