<svg width="17" height="16" viewBox="0 0 17 16" fill="none" xmlns="http://www.w3.org/2000/svg">
<path d="M1 6L7.56295 1.29458C8.11075 0.901806 8.88925 0.901806 9.43705 1.29458L16 6" stroke="#7D7E7F" stroke-width="1.5" stroke-linecap="round" stroke-linejoin="round"/>
<path d="M7.10822 2.06136L4.10822 4.40394C3.56354 4.82926 3.29119 5.04192 3.14559 5.3359C3 5.62987 3 5.96712 3 6.64162V9.23366C3 11.9519 3 13.3111 3.87868 14.1555C4.75736 15 6.17157 15 9 15C11.8284 15 13.2427 15 14.1213 14.1555C15 13.3111 15 11.9519 15 9.23366V6.64162C15 5.96712 15 5.62987 14.8544 5.3359C14.7088 5.04192 14.4364 4.82926 13.8918 4.40394L10.8918 2.06136C9.98565 1.35379 9.53257 1 9 1C8.46743 1 8.01435 1.35379 7.10822 2.06136Z" stroke="#7D7E7F" stroke-width="1.5"/>
<path d="M7 11H10" stroke="#7D7E7F" stroke-width="1.5" stroke-linecap="round"/>
</svg>
