<svg width="257" height="34" viewBox="0 0 257 34" fill="none" xmlns="http://www.w3.org/2000/svg">
<rect x="1.32292" y="1.32292" width="46.0405" height="30.8759" rx="14.5521" fill="white" stroke="#D9D9D9" stroke-width="2.64583"/>
<path fill-rule="evenodd" clip-rule="evenodd" d="M14.7801 22.6162H11.8306L9.61888 14.1783C9.5139 13.7902 9.291 13.447 8.96312 13.2853C8.14487 12.8789 7.24321 12.5554 6.25958 12.3923V12.0674H11.0109C11.6667 12.0674 12.1585 12.5554 12.2404 13.1222L13.388 19.2087L16.336 12.0674H19.2035L14.7801 22.6162ZM20.8429 22.6162H18.0574L20.3511 12.0674H23.1366L20.8429 22.6162ZM26.7403 14.9896C26.8223 14.4214 27.3141 14.0966 27.8879 14.0966C28.7896 14.015 29.7717 14.1781 30.5914 14.5832L31.0833 12.312C30.2636 11.9871 29.3619 11.824 28.5436 11.824C25.8401 11.824 23.8728 13.2851 23.8728 15.313C23.8728 16.8558 25.2663 17.6658 26.25 18.1538C27.3141 18.6404 27.724 18.9652 27.642 19.4518C27.642 20.1817 26.8223 20.5065 26.004 20.5065C25.0204 20.5065 24.0368 20.2632 23.1366 19.8568L22.6448 22.1294C23.6284 22.5344 24.6925 22.6976 25.6762 22.6976C28.7076 22.7777 30.5914 21.318 30.5914 19.1269C30.5914 16.3678 26.7403 16.206 26.7403 14.9896ZM40.3401 22.6162L38.1283 12.0674H35.7527C35.2609 12.0674 34.769 12.3923 34.6051 12.8789L30.5095 22.6162H33.377L33.9494 21.0749H37.4726L37.8005 22.6162H40.3401ZM36.1624 14.9079L36.9807 18.8836H34.687L36.1624 14.9079Z" fill="#172B85"/>
<rect x="70.7608" y="1.32292" width="46.0405" height="30.8759" rx="14.5521" fill="white" stroke="#D9D9D9" stroke-width="2.64583"/>
<path fill-rule="evenodd" clip-rule="evenodd" d="M100.251 26.2946C105.487 26.2946 109.732 21.9734 109.732 16.6428C109.732 11.3122 105.487 6.99097 100.251 6.99097C97.9038 6.99097 95.7561 7.85892 94.1005 9.29669C92.4449 7.85897 90.2973 6.99104 87.9505 6.99104C82.7142 6.99104 78.4692 11.3123 78.4692 16.6429C78.4692 21.9734 82.7142 26.2947 87.9505 26.2947C90.2973 26.2947 92.445 25.4267 94.1006 23.989C95.7562 25.4267 97.9038 26.2946 100.251 26.2946Z" fill="#ED0006"/>
<path fill-rule="evenodd" clip-rule="evenodd" d="M94.1006 23.9889C96.1392 22.2186 97.4318 19.5844 97.4318 16.6428C97.4318 13.7012 96.1392 11.067 94.1006 9.29669C95.7562 7.85892 97.9039 6.99097 100.251 6.99097C105.487 6.99097 109.732 11.3122 109.732 16.6428C109.732 21.9734 105.487 26.2946 100.251 26.2946C97.9039 26.2946 95.7562 25.4267 94.1006 23.9889Z" fill="#F9A000"/>
<path fill-rule="evenodd" clip-rule="evenodd" d="M94.1006 23.9891C96.1392 22.2188 97.4318 19.5845 97.4318 16.643C97.4318 13.7014 96.1392 11.0672 94.1006 9.29688C92.062 11.0672 90.7693 13.7014 90.7693 16.643C90.7693 19.5845 92.062 22.2188 94.1006 23.9891Z" fill="#FF5E00"/>
<rect x="140.199" y="1.32292" width="46.0405" height="30.8759" rx="14.5521" fill="white" stroke="#D9D9D9" stroke-width="2.64583"/>
<path fill-rule="evenodd" clip-rule="evenodd" d="M174.524 16.7934C174.524 22.9931 169.502 28.0189 163.306 28.0189C157.111 28.0189 152.089 22.9931 152.089 16.7934C152.089 10.5937 157.111 5.56787 163.306 5.56787C169.502 5.56787 174.524 10.5937 174.524 16.7934ZM166.001 12.6229C167.562 13.1591 168.703 13.9621 168.479 15.4563C168.317 16.5505 167.708 17.0797 166.9 17.265C168.009 17.8405 168.387 18.9328 168.036 20.2535C167.369 22.1541 165.784 22.3142 163.675 21.9169L163.164 23.96L161.928 23.6526L162.433 21.6369C162.112 21.5576 161.785 21.4726 161.447 21.3821L160.94 23.4077L159.706 23.1002L160.217 21.0529L157.728 20.4269L158.342 19.0161C158.342 19.0161 159.253 19.2569 159.241 19.2393C159.591 19.3257 159.746 19.0982 159.808 18.9473L161.195 13.402C161.21 13.1402 161.119 12.8103 160.619 12.6854C160.638 12.672 159.721 12.4629 159.721 12.4629L160.05 11.1469L162.542 11.7624L163.049 9.73827L164.285 10.0457L163.788 12.0298C164.12 12.1049 164.454 12.1814 164.779 12.2622L165.272 10.2906L166.508 10.5981L166.001 12.6229ZM163.044 15.9992C163.886 16.2226 165.718 16.7085 166.037 15.4343C166.363 14.1306 164.583 13.7369 163.712 13.5441L163.712 13.5441L163.712 13.5441C163.613 13.5222 163.526 13.503 163.455 13.4852L162.84 15.946C162.898 15.9605 162.967 15.9787 163.044 15.9992L163.044 15.9992ZM162.09 19.9614C163.099 20.2271 165.304 20.8084 165.655 19.4043C166.014 17.9687 163.876 17.4905 162.833 17.2572L162.832 17.2572C162.716 17.2311 162.613 17.2081 162.529 17.1872L161.85 19.8991C161.919 19.9162 162 19.9375 162.09 19.9614Z" fill="#F7931A"/>
<rect x="209.637" y="1.32292" width="46.0405" height="30.8759" rx="14.5521" fill="white" stroke="#D9D9D9" stroke-width="2.64583"/>
<path fill-rule="evenodd" clip-rule="evenodd" d="M222.085 21.2876H219.921C219.773 21.2876 219.647 21.3957 219.624 21.5424L218.749 27.1141C218.731 27.224 218.816 27.3231 218.927 27.3231H219.96C220.108 27.3231 220.234 27.2151 220.257 27.0681L220.493 25.5653C220.516 25.4181 220.642 25.3102 220.79 25.3102H221.475C222.901 25.3102 223.723 24.6176 223.938 23.2451C224.035 22.6446 223.942 22.1728 223.662 21.8423C223.355 21.4796 222.809 21.2876 222.085 21.2876ZM222.334 23.3226C222.216 24.1023 221.623 24.1023 221.049 24.1023H220.723L220.952 22.6461C220.965 22.5582 221.041 22.4934 221.13 22.4934H221.28C221.67 22.4934 222.039 22.4934 222.23 22.717C222.343 22.8505 222.378 23.0487 222.334 23.3226ZM228.553 23.2976H227.517C227.429 23.2976 227.352 23.3624 227.339 23.4505L227.293 23.7415L227.221 23.636C226.996 23.3091 226.496 23.1998 225.997 23.1998C224.852 23.1998 223.874 24.0706 223.683 25.2923C223.584 25.9016 223.725 26.4842 224.069 26.8906C224.385 27.2642 224.837 27.4199 225.374 27.4199C226.297 27.4199 226.809 26.8241 226.809 26.8241L226.762 27.1133C226.745 27.2239 226.83 27.323 226.94 27.323H227.874C228.022 27.323 228.147 27.2149 228.171 27.0679L228.731 23.5067C228.749 23.3971 228.664 23.2976 228.553 23.2976ZM227.109 25.3227C227.009 25.9171 226.539 26.3162 225.94 26.3162C225.639 26.3162 225.398 26.2193 225.244 26.0356C225.091 25.8533 225.033 25.5937 225.081 25.3046C225.175 24.7152 225.652 24.3032 226.243 24.3032C226.537 24.3032 226.776 24.4013 226.934 24.5866C227.091 24.7737 227.154 25.0348 227.109 25.3227ZM233.031 23.2974H234.072C234.218 23.2974 234.303 23.4617 234.22 23.5818L230.757 28.6015C230.701 28.6828 230.608 28.7312 230.51 28.7312H229.47C229.323 28.7312 229.238 28.5657 229.323 28.4452L230.401 26.9168L229.254 23.5369C229.214 23.4195 229.301 23.2974 229.425 23.2974H230.448C230.581 23.2974 230.699 23.3851 230.737 23.5128L231.346 25.5541L232.782 23.4299C232.838 23.347 232.932 23.2974 233.031 23.2974Z" fill="#253B80"/>
<path fill-rule="evenodd" clip-rule="evenodd" d="M244.321 27.1141L245.209 21.4406C245.223 21.3525 245.299 21.2876 245.387 21.2874H246.387C246.497 21.2874 246.582 21.3867 246.565 21.4967L245.689 27.0681C245.666 27.2151 245.54 27.3232 245.392 27.3232H244.499C244.389 27.3232 244.304 27.2241 244.321 27.1141ZM237.52 21.2876H235.356C235.208 21.2876 235.082 21.3957 235.059 21.5424L234.184 27.1141C234.166 27.2241 234.251 27.3232 234.361 27.3232H235.472C235.575 27.3232 235.663 27.2476 235.68 27.1447L235.928 25.5654C235.951 25.4182 236.077 25.3103 236.225 25.3103H236.909C238.335 25.3103 239.158 24.6176 239.373 23.2451C239.47 22.6447 239.377 22.1729 239.097 21.8424C238.789 21.4797 238.244 21.2876 237.52 21.2876ZM237.77 23.3226C237.651 24.1023 237.058 24.1023 236.484 24.1023H236.158L236.387 22.6462C236.401 22.5582 236.476 22.4934 236.565 22.4934H236.715C237.105 22.4934 237.474 22.4934 237.665 22.717C237.778 22.8505 237.813 23.0487 237.77 23.3226ZM243.988 23.2976H242.952C242.863 23.2976 242.788 23.3625 242.774 23.4505L242.728 23.7415L242.656 23.6361C242.431 23.3091 241.932 23.1999 241.432 23.1999C240.287 23.1999 239.309 24.0707 239.119 25.2923C239.02 25.9016 239.16 26.4843 239.505 26.8906C239.821 27.2642 240.272 27.4199 240.81 27.4199C241.732 27.4199 242.244 26.8242 242.244 26.8242L242.198 27.1134C242.18 27.224 242.265 27.323 242.376 27.323H243.309C243.457 27.323 243.583 27.215 243.606 27.068L244.167 23.5067C244.184 23.3972 244.099 23.2976 243.988 23.2976ZM242.543 25.3228C242.444 25.9172 241.974 26.3162 241.374 26.3162C241.074 26.3162 240.833 26.2193 240.678 26.0357C240.525 25.8534 240.468 25.5937 240.516 25.3047C240.61 24.7153 241.087 24.3033 241.677 24.3033C241.971 24.3033 242.21 24.4014 242.368 24.5866C242.527 24.7738 242.589 25.0349 242.543 25.3228Z" fill="#179BD7"/>
<path d="M230.093 19.2945L230.359 17.5978L229.767 17.584H226.937L228.903 5.06388C228.909 5.02608 228.929 4.99084 228.958 4.96582C228.987 4.94079 229.024 4.927 229.063 4.927H233.834C235.418 4.927 236.512 5.25797 237.082 5.91122C237.35 6.21768 237.52 6.53792 237.603 6.89034C237.689 7.26013 237.691 7.70193 237.606 8.24078L237.6 8.28011V8.62537L237.868 8.77759C238.093 8.8976 238.272 9.035 238.409 9.19231C238.638 9.45433 238.786 9.78734 238.849 10.1821C238.913 10.5882 238.892 11.0714 238.786 11.6184C238.664 12.2477 238.467 12.7957 238.2 13.2441C237.955 13.6573 237.643 14 237.272 14.2656C236.918 14.5179 236.497 14.7095 236.022 14.8321C235.561 14.9526 235.035 15.0134 234.459 15.0134H234.088C233.822 15.0134 233.564 15.1094 233.362 15.2816C233.159 15.4573 233.025 15.6972 232.983 15.9598L232.955 16.1126L232.485 19.1029L232.464 19.2128C232.458 19.2476 232.449 19.265 232.435 19.2767C232.422 19.2873 232.404 19.2945 232.386 19.2945H230.093Z" fill="#253B80"/>
<path d="M238.121 8.32007C238.107 8.41149 238.091 8.50495 238.072 8.60098C237.443 11.8448 235.29 12.9654 232.541 12.9654H231.141C230.805 12.9654 230.522 13.2105 230.469 13.5435L229.752 18.1077L229.549 19.4014C229.515 19.62 229.683 19.8172 229.903 19.8172H232.386C232.68 19.8172 232.929 19.6027 232.976 19.3115L233 19.1848L233.468 16.2061L233.498 16.0427C233.543 15.7506 233.794 15.5361 234.088 15.5361H234.459C236.865 15.5361 238.748 14.5554 239.298 11.7176C239.528 10.5321 239.409 9.54231 238.801 8.84614C238.617 8.63622 238.388 8.46205 238.121 8.32007Z" fill="#179BD7"/>
<path d="M237.462 8.05661C237.366 8.02851 237.267 8.00297 237.165 7.97999C237.063 7.95753 236.958 7.9376 236.851 7.92024C236.473 7.85895 236.06 7.82983 235.616 7.82983H231.877C231.785 7.82983 231.697 7.85077 231.619 7.88857C231.446 7.97182 231.318 8.13578 231.287 8.3365L230.492 13.396L230.469 13.5436C230.521 13.2106 230.805 12.9655 231.141 12.9655H232.541C235.29 12.9655 237.443 11.8444 238.072 8.60107C238.091 8.50505 238.106 8.41158 238.121 8.32016C237.961 8.23537 237.789 8.16285 237.603 8.10104C237.558 8.08572 237.51 8.07091 237.462 8.05661Z" fill="#222D65"/>
<path d="M231.287 8.3366C231.318 8.13586 231.447 7.97192 231.619 7.88917C231.698 7.85137 231.785 7.83043 231.877 7.83043H235.617C236.06 7.83043 236.473 7.85954 236.851 7.92084C236.959 7.9382 237.063 7.95812 237.166 7.98059C237.267 8.00358 237.366 8.02912 237.463 8.05721C237.51 8.07151 237.558 8.08632 237.604 8.10114C237.79 8.16293 237.962 8.23597 238.121 8.32025C238.309 7.12151 238.12 6.30532 237.474 5.56625C236.763 4.75263 235.478 4.4043 233.835 4.4043H229.063C228.728 4.4043 228.441 4.64945 228.389 4.98297L226.402 17.6318C226.363 17.8821 226.555 18.1079 226.806 18.1079H229.752L230.492 13.3961L231.287 8.3366Z" fill="#253B80"/>
</svg>
