<svg width="334" height="22" viewBox="0 0 334 22" fill="none" xmlns="http://www.w3.org/2000/svg">
<path fill-rule="evenodd" clip-rule="evenodd" d="M1.909 5.25027C1.90894 4.59058 2.10418 3.94563 2.47011 3.39673C2.83604 2.84783 3.35628 2.41954 3.96525 2.16584C4.57422 1.91215 5.24467 1.84441 5.89207 1.97117C6.53948 2.09792 7.13488 2.41349 7.60321 2.87811L7.99173 3.26376L8.52154 3.12248C9.81705 2.77436 11.1814 2.77363 12.4773 3.12036C13.7732 3.46709 14.9549 4.14905 15.9034 5.0976C16.852 6.04616 17.534 7.22783 17.8807 8.5237C18.2274 9.81958 18.2267 11.1839 17.8786 12.4794L17.7373 13.0092L18.1229 13.3977C18.7496 14.0243 19.1016 14.8742 19.1016 15.7604C19.1016 16.6465 18.7496 17.4964 18.1229 18.123C17.4963 18.7496 16.6465 19.1016 15.7603 19.1016C14.8741 19.1016 14.0243 18.7496 13.3977 18.123L13.0091 17.7373L12.4793 17.8786C11.1838 18.2269 9.81928 18.2278 8.52325 17.8812C7.22722 17.5345 6.04538 16.8526 5.09669 15.904C4.148 14.9554 3.46594 13.7737 3.11916 12.4777C2.77239 11.1817 2.77314 9.81726 3.12134 8.52167L3.26263 7.99187L2.87697 7.60335C2.25534 6.97818 1.90721 6.13189 1.909 5.25027ZM5.25011 3.98462e-06C4.26029 4.42736e-05 3.29065 0.279881 2.45302 0.807238C1.61539 1.33459 0.943891 2.08799 0.515982 2.98052C0.0880727 3.87305 -0.0788179 4.86837 0.0345596 5.85166C0.147937 6.83495 0.536964 7.76617 1.15677 8.5379C1.02196 9.18341 0.954145 9.84111 0.954393 10.5005C0.954393 15.7728 5.22816 20.0465 10.5004 20.0465C11.1725 20.0465 11.8292 19.9768 12.4631 19.8441C13.4719 20.6538 14.7441 21.0627 16.0357 20.9922C17.3274 20.9217 18.5475 20.3769 19.4622 19.4622C20.3769 18.5475 20.9217 17.3274 20.9922 16.0358C21.0627 14.7441 20.6538 13.472 19.8441 12.4632C19.9777 11.8293 20.0465 11.1726 20.0465 10.5005C20.0465 5.22832 15.7727 0.954598 10.5004 0.954598C9.82839 0.954598 9.17163 1.02428 8.53777 1.15697C7.60635 0.40686 6.44603 -0.00147149 5.25011 3.98462e-06ZM9.20408 7.95177C9.33104 7.71026 9.76443 7.39811 10.4355 7.39811C11.5877 7.39811 12.2225 7.84868 12.5146 8.07205C12.7159 8.22573 12.97 8.29316 13.221 8.2595C13.472 8.22584 13.6993 8.09386 13.853 7.89259C14.0067 7.69132 14.0741 7.43724 14.0405 7.18625C14.0068 6.93526 13.8748 6.70793 13.6735 6.55425C13.2058 6.19723 12.1681 5.48892 10.4355 5.48892C9.22508 5.48892 8.04233 6.05595 7.46861 7.14991C7.27391 7.51445 7.17823 7.92367 7.19113 8.33674C7.20402 8.74981 7.32505 9.15227 7.54212 9.50395C7.95164 10.1846 8.66091 10.6705 9.49715 10.8957L10.9806 11.2948C11.5515 11.4485 12.4192 11.9792 12.107 12.6942C11.918 13.1257 11.2508 13.603 10.2675 13.603C9.41791 13.603 8.66759 13.456 7.97646 12.929C7.77494 12.7789 7.52237 12.7143 7.27354 12.7493C7.02471 12.7842 6.79968 12.9158 6.64728 13.1156C6.49487 13.3154 6.42738 13.5672 6.45944 13.8164C6.49149 14.0656 6.62052 14.2921 6.81853 14.4468C7.74449 15.1532 8.70578 15.5122 10.0565 15.5122C11.5639 15.5122 13.2086 14.9413 13.8559 13.4598C14.2377 12.5863 14.1117 11.6709 13.6363 10.9368C12.9022 9.80655 11.6402 9.47913 10.4174 9.16315C10.2759 9.12665 10.1346 9.08942 9.99354 9.05147C9.49142 8.91687 8.90529 8.52358 9.20408 7.95177Z" fill="white"/>
<path d="M80.6429 20L80.1877 20.5961C80.3241 20.7003 80.4923 20.7545 80.6639 20.7497L80.6429 20ZM78.5977 17.2809C78.3222 16.9715 77.8482 16.944 77.5388 17.2195C77.2295 17.495 77.202 17.969 77.4775 18.2784L78.5977 17.2809ZM79.4503 16.6408L79.2159 15.9284C79.2067 15.9314 79.1975 15.9346 79.1884 15.938L79.4503 16.6408ZM76.3467 17.457L76.2347 16.7153L76.2238 16.7171L76.3467 17.457ZM70.8031 17.438L70.6765 18.1773L70.6806 18.178L70.8031 17.438ZM67.6567 16.622L67.4108 17.3306L67.4115 17.3308L67.6567 16.622ZM66.094 15.9767L65.7114 16.6218C65.7275 16.6313 65.7438 16.6402 65.7605 16.6485L66.094 15.9767ZM65.9015 15.8818L66.2834 15.2363C66.2582 15.2214 66.2322 15.208 66.2054 15.1961L65.9015 15.8818ZM65.8159 15.8249L66.3134 15.2638C66.2633 15.2193 66.2074 15.1818 66.1473 15.1521L65.8159 15.8249ZM69.5225 18.2403C69.7979 17.9309 69.7703 17.4568 69.4609 17.1814C69.1515 16.906 68.6774 16.9336 68.4021 17.243L69.5225 18.2403ZM66.3571 20L66.3361 20.7497C66.5109 20.7546 66.6819 20.6983 66.8195 20.5905L66.3571 20ZM61 16.4322H60.25C60.25 16.4774 60.2541 16.5224 60.2622 16.5668L61 16.4322ZM64.0822 2.99286L63.6669 2.36834C63.544 2.45002 63.448 2.56612 63.3908 2.70209L64.0822 2.99286ZM70.0967 1.00016L70.8424 0.920056C70.802 0.544566 70.4888 0.257633 70.1112 0.250299L70.0967 1.00016ZM69.565 3.07309C69.6093 3.48493 69.979 3.78294 70.3908 3.7387C70.8027 3.69446 71.1007 3.32473 71.0564 2.91289L69.565 3.07309ZM75.8613 2.96136C75.8019 3.37129 76.0861 3.75175 76.496 3.81113C76.9059 3.87052 77.2864 3.58634 77.3458 3.1764L75.8613 2.96136ZM76.9032 1.00029L76.8886 0.25043C76.5215 0.257575 76.2136 0.529411 76.1609 0.892766L76.9032 1.00029ZM82.9177 2.99299L83.609 2.70221C83.5518 2.56624 83.4558 2.45016 83.333 2.36848L82.9177 2.99299ZM86 16.4322L86.7378 16.5669C86.7459 16.5224 86.75 16.4774 86.75 16.4322H86ZM71.6805 12.5606L70.9305 12.5466V12.5606H71.6805ZM80.6429 20C81.0981 19.4039 81.0981 19.404 81.0981 19.404C81.0981 19.4039 81.0981 19.4039 81.0981 19.4039C81.098 19.4039 81.098 19.4039 81.0979 19.4038C81.0977 19.4037 81.0974 19.4034 81.097 19.4031C81.0962 19.4025 81.0949 19.4015 81.0931 19.4002C81.0896 19.3975 81.0843 19.3934 81.0773 19.388C81.0633 19.3773 81.0424 19.3612 81.0155 19.3405C80.9617 19.2989 80.8838 19.2386 80.7882 19.1638C80.5968 19.014 80.3353 18.8072 80.0546 18.5787C79.475 18.1068 78.872 17.5889 78.5977 17.2809L77.4775 18.2784C77.8454 18.6915 78.5449 19.2838 79.1075 19.7419C79.3978 19.9782 79.6673 20.1913 79.864 20.3452C79.9624 20.4222 80.0429 20.4846 80.099 20.5279C80.127 20.5495 80.1489 20.5664 80.164 20.5779C80.1715 20.5837 80.1773 20.5882 80.1813 20.5912C80.1833 20.5927 80.1848 20.5939 80.1859 20.5947C80.1864 20.5951 80.1868 20.5954 80.1871 20.5957C80.1873 20.5958 80.1874 20.5959 80.1875 20.5959C80.1875 20.596 80.1876 20.596 80.1876 20.596C80.1876 20.596 80.1877 20.5961 80.6429 20ZM81.5336 14.8736C80.7024 15.3589 79.916 15.698 79.2159 15.9284L79.6847 17.3532C80.4828 17.0906 81.3659 16.7085 82.2899 16.1689L81.5336 14.8736ZM79.1884 15.938C78.164 16.3196 77.1867 16.5716 76.2347 16.7154L76.4587 18.1986C77.5186 18.0385 78.5962 17.7593 79.7121 17.3436L79.1884 15.938ZM76.2238 16.7171C74.2651 17.0427 72.4659 16.9531 70.9256 16.6981L70.6806 18.178C72.3507 18.4544 74.3187 18.5544 76.4697 18.1968L76.2238 16.7171ZM70.9296 16.6988C69.7587 16.4983 68.7502 16.2067 67.9019 15.9132L67.4115 17.3308C68.3181 17.6444 69.4072 17.96 70.6765 18.1773L70.9296 16.6988ZM67.9026 15.9135C67.4291 15.7492 66.9255 15.5521 66.4275 15.3049L65.7605 16.6485C66.333 16.9327 66.8996 17.1531 67.4108 17.3306L67.9026 15.9135ZM66.4766 15.3317C66.4008 15.2867 66.3292 15.2557 66.3019 15.2437C66.2648 15.2272 66.272 15.2296 66.2834 15.2363L65.5195 16.5272C65.5951 16.572 65.6667 16.6028 65.6937 16.6148C65.7306 16.6312 65.7231 16.6287 65.7114 16.6218L66.4766 15.3317ZM66.2054 15.1961C66.2285 15.2063 66.2558 15.2213 66.2838 15.2411C66.308 15.2582 66.3252 15.2742 66.3134 15.2638L65.3183 16.3861C65.3591 16.4223 65.4491 16.5016 65.5975 16.5674L66.2054 15.1961ZM66.1473 15.1521C65.9675 15.0635 65.8293 14.9891 65.7382 14.9381C65.6927 14.9125 65.6589 14.8929 65.6377 14.8804C65.627 14.8741 65.6195 14.8696 65.6152 14.867C65.6131 14.8657 65.6117 14.8648 65.6112 14.8645C65.6109 14.8643 65.6109 14.8643 65.611 14.8644C65.6111 14.8644 65.6112 14.8645 65.6114 14.8646C65.6115 14.8647 65.6116 14.8647 65.6117 14.8648C65.6117 14.8648 65.6118 14.8649 65.6118 14.8649C65.6119 14.8649 65.6119 14.865 65.6119 14.865C65.612 14.865 65.612 14.865 65.2166 15.5023C64.8211 16.1395 64.8211 16.1396 64.8212 16.1396C64.8212 16.1396 64.8213 16.1397 64.8213 16.1397C64.8214 16.1397 64.8214 16.1398 64.8215 16.1398C64.8217 16.1399 64.8219 16.14 64.8221 16.1402C64.8224 16.1404 64.8229 16.1407 64.8234 16.141C64.8243 16.1416 64.8255 16.1423 64.8269 16.1431C64.8297 16.1449 64.8333 16.1471 64.8378 16.1498C64.8467 16.1552 64.8589 16.1625 64.8744 16.1717C64.9053 16.1899 64.9492 16.2154 65.0053 16.2468C65.1175 16.3097 65.279 16.3965 65.4844 16.4977L66.1473 15.1521ZM68.4021 17.243C68.125 17.5542 67.5188 18.0832 66.9397 18.5644C66.6586 18.798 66.3968 19.0097 66.2052 19.1631C66.1095 19.2397 66.0314 19.3016 65.9775 19.3443C65.9506 19.3656 65.9297 19.382 65.9156 19.3931C65.9086 19.3986 65.9033 19.4028 65.8998 19.4056C65.898 19.4069 65.8967 19.408 65.8959 19.4086C65.8955 19.4089 65.8952 19.4092 65.895 19.4093C65.8949 19.4094 65.8948 19.4094 65.8948 19.4095C65.8948 19.4095 65.8948 19.4095 65.8948 19.4095C65.8948 19.4095 65.8948 19.4095 66.3571 20C66.8195 20.5905 66.8195 20.5905 66.8196 20.5905C66.8196 20.5905 66.8196 20.5904 66.8197 20.5904C66.8198 20.5903 66.8199 20.5902 66.82 20.5901C66.8203 20.5899 66.8207 20.5896 66.8213 20.5892C66.8223 20.5883 66.8238 20.5871 66.8258 20.5856C66.8298 20.5825 66.8356 20.5779 66.8431 20.572C66.8581 20.5602 66.88 20.543 66.9079 20.5208C66.9639 20.4766 67.0443 20.4128 67.1426 20.334C67.3392 20.1767 67.6083 19.9591 67.8982 19.7182C68.4611 19.2505 69.1575 18.6504 69.5225 18.2403L68.4021 17.243ZM66.3782 19.2503C64.2183 19.1896 63.0809 18.3883 62.4748 17.6791C62.1625 17.3136 61.9747 16.9525 61.8659 16.6869C61.8117 16.5544 61.7779 16.4474 61.7584 16.3778C61.7487 16.3431 61.7426 16.318 61.7394 16.3041C61.7378 16.2971 61.737 16.2929 61.7367 16.2918C61.7366 16.2912 61.7367 16.2914 61.7368 16.2923C61.7369 16.2928 61.7371 16.2935 61.7372 16.2944C61.7373 16.2948 61.7374 16.2953 61.7375 16.2958C61.7375 16.2961 61.7376 16.2965 61.7377 16.2967C61.7377 16.2971 61.7378 16.2976 61 16.4322C60.2622 16.5668 60.2623 16.5673 60.2624 16.5678C60.2624 16.568 60.2625 16.5685 60.2626 16.5689C60.2627 16.5696 60.2628 16.5704 60.263 16.5713C60.2633 16.573 60.2637 16.5749 60.2641 16.5771C60.2649 16.5813 60.2659 16.5864 60.2672 16.5924C60.2696 16.6042 60.2728 16.6194 60.277 16.6376C60.2853 16.674 60.2973 16.7228 60.314 16.7823C60.3472 16.9011 60.3993 17.0635 60.4777 17.2551C60.6343 17.6377 60.8988 18.1437 61.3345 18.6535C62.2244 19.695 63.7656 20.6775 66.3361 20.7497L66.3782 19.2503ZM61.75 16.4322C61.75 13.4842 62.4968 10.2057 63.2601 7.63434C63.6398 6.35507 64.0196 5.26378 64.3041 4.4932C64.4463 4.10811 64.5646 3.80362 64.6468 3.59639C64.6879 3.49278 64.7201 3.41352 64.7417 3.36069C64.7525 3.33428 64.7607 3.31447 64.766 3.30154C64.7687 3.29508 64.7707 3.29033 64.772 3.28733C64.7726 3.28583 64.773 3.28477 64.7733 3.28415C64.7734 3.28384 64.7735 3.28364 64.7735 3.28355C64.7736 3.28351 64.7736 3.28353 64.7736 3.2835C64.7735 3.28355 64.7735 3.28362 64.0822 2.99286C63.3908 2.70209 63.3908 2.70222 63.3907 2.70238C63.3907 2.70247 63.3906 2.70265 63.3905 2.70283C63.3904 2.70319 63.3902 2.70366 63.3899 2.70424C63.3894 2.7054 63.3888 2.70701 63.3879 2.70905C63.3862 2.71315 63.3838 2.719 63.3806 2.72659C63.3743 2.74176 63.3652 2.76386 63.3534 2.79261C63.3299 2.85011 63.2958 2.93427 63.2526 3.04298C63.1663 3.26039 63.0438 3.57618 62.897 3.97361C62.6036 4.76807 62.2129 5.89082 61.8221 7.20752C61.0442 9.82812 60.25 13.2693 60.25 16.4322H61.75ZM64.4975 3.61737C65.9445 2.65511 67.3561 2.18761 68.4038 1.96093C68.9272 1.84769 69.3574 1.79508 69.6521 1.77074C69.7993 1.75858 69.9124 1.7535 69.9859 1.75141C70.0227 1.75037 70.0495 1.75007 70.0658 1.75001C70.0739 1.74998 70.0794 1.75001 70.0822 1.75003C70.0835 1.75004 70.0842 1.75005 70.0842 1.75005C70.0842 1.75005 70.084 1.75005 70.0837 1.75005C70.0835 1.75004 70.0833 1.75004 70.083 1.75003C70.0829 1.75003 70.0827 1.75003 70.0826 1.75003C70.0824 1.75002 70.0821 1.75002 70.0967 1.00016C70.1112 0.250299 70.111 0.250294 70.1107 0.250289C70.1106 0.250287 70.1103 0.250281 70.11 0.250277C70.1096 0.250269 70.1091 0.250261 70.1086 0.250252C70.1075 0.250234 70.1063 0.250215 70.1048 0.250195C70.102 0.250156 70.0984 0.250115 70.0942 0.250081C70.0856 0.250013 70.0743 0.249971 70.0602 0.250024C70.032 0.25013 69.9928 0.250613 69.9434 0.252016C69.8445 0.254821 69.7044 0.261307 69.5286 0.275831C69.1772 0.30486 68.6816 0.366116 68.0866 0.494849C66.8976 0.752105 65.302 1.28095 63.6669 2.36834L64.4975 3.61737ZM69.351 1.08026L69.565 3.07309L71.0564 2.91289L70.8424 0.920056L69.351 1.08026ZM77.3458 3.1764L77.6454 1.10781L76.1609 0.892766L75.8613 2.96136L77.3458 3.1764ZM76.9032 1.00029C76.9178 1.75015 76.9175 1.75015 76.9173 1.75016C76.9172 1.75016 76.917 1.75016 76.9169 1.75016C76.9166 1.75017 76.9164 1.75017 76.9162 1.75017C76.9158 1.75018 76.9157 1.75018 76.9157 1.75018C76.9157 1.75018 76.9164 1.75017 76.9177 1.75016C76.9205 1.75014 76.926 1.75011 76.9341 1.75014C76.9504 1.7502 76.9772 1.7505 77.014 1.75154C77.0875 1.75362 77.2006 1.75869 77.3478 1.77085C77.6425 1.79519 78.0727 1.84778 78.596 1.96101C79.6437 2.18767 81.0554 2.65518 82.5024 3.61749L83.333 2.36848C81.6978 1.28102 80.1022 0.75217 78.9132 0.494929C78.3182 0.366203 77.8227 0.304959 77.4712 0.27594C77.2954 0.261422 77.1553 0.254941 77.0564 0.252139C77.007 0.250738 76.9678 0.250257 76.9396 0.250152C76.9255 0.2501 76.9142 0.250142 76.9056 0.250211C76.9014 0.250245 76.8978 0.250286 76.895 0.250326C76.8935 0.250345 76.8923 0.250364 76.8912 0.250382C76.8907 0.250391 76.8902 0.2504 76.8898 0.250408C76.8896 0.250412 76.8893 0.250417 76.8891 0.250419C76.8889 0.250425 76.8886 0.25043 76.9032 1.00029ZM82.9177 2.99299C82.2263 3.28377 82.2263 3.28369 82.2263 3.28365C82.2263 3.28367 82.2263 3.28366 82.2263 3.2837C82.2264 3.28379 82.2264 3.28399 82.2266 3.2843C82.2268 3.28492 82.2273 3.28598 82.2279 3.28748C82.2292 3.29047 82.2311 3.29522 82.2338 3.30169C82.2392 3.31462 82.2474 3.33442 82.2582 3.36084C82.2798 3.41367 82.3119 3.49292 82.353 3.59653C82.4353 3.80376 82.5535 4.10824 82.6957 4.49333C82.9803 5.2639 83.3601 6.35516 83.7398 7.63442C84.5031 10.2057 85.25 13.4842 85.25 16.4322H86.75C86.75 13.2693 85.9557 9.82815 85.1778 7.20757C84.787 5.89089 84.3962 4.76815 84.1029 3.9737C83.9561 3.57628 83.8335 3.2605 83.7472 3.04309C83.7041 2.93438 83.67 2.85022 83.6464 2.79272C83.6347 2.76397 83.6255 2.74188 83.6192 2.7267C83.6161 2.71912 83.6136 2.71326 83.6119 2.70917C83.6111 2.70712 83.6104 2.70552 83.6099 2.70435C83.6097 2.70377 83.6095 2.7033 83.6093 2.70295C83.6093 2.70277 83.6092 2.70258 83.6091 2.70249C83.6091 2.70234 83.609 2.70221 82.9177 2.99299ZM86 16.4322C85.2622 16.2976 85.2623 16.2971 85.2624 16.2966C85.2624 16.2965 85.2625 16.2961 85.2625 16.2958C85.2626 16.2953 85.2627 16.2948 85.2628 16.2943C85.2629 16.2935 85.2631 16.2928 85.2632 16.2923C85.2634 16.2914 85.2634 16.2912 85.2633 16.2917C85.263 16.2929 85.2622 16.2971 85.2606 16.304C85.2574 16.318 85.2513 16.3431 85.2416 16.3778C85.2221 16.4473 85.1883 16.5544 85.1341 16.6869C85.0253 16.9525 84.8374 17.3136 84.5251 17.6791C83.9191 18.3883 82.7817 19.1896 80.6218 19.2503L80.6639 20.7497C83.2343 20.6775 84.7755 19.695 85.6655 18.6535C86.1011 18.1437 86.3656 17.6377 86.5222 17.2551C86.6007 17.0635 86.6528 16.9012 86.686 16.7823C86.7027 16.7229 86.7147 16.674 86.723 16.6376C86.7272 16.6194 86.7304 16.6042 86.7328 16.5924C86.7341 16.5865 86.7351 16.5814 86.7359 16.5771C86.7363 16.575 86.7367 16.573 86.737 16.5713C86.7371 16.5705 86.7373 16.5697 86.7374 16.5689C86.7375 16.5686 86.7376 16.568 86.7376 16.5679C86.7377 16.5674 86.7378 16.5669 86 16.4322ZM69.4974 9.70411C67.884 9.70411 66.5643 10.9682 66.5643 12.5606H68.0643C68.0643 11.8377 68.6707 11.2041 69.4974 11.2041V9.70411ZM66.5643 12.5606C66.5643 14.1578 67.9102 15.4172 69.4974 15.4172V13.9172C68.6873 13.9172 68.0643 13.2789 68.0643 12.5606H66.5643ZM69.4974 15.4172C71.1109 15.4172 72.4305 14.1531 72.4305 12.5606H70.9305C70.9305 13.2836 70.3241 13.9172 69.4974 13.9172V15.4172ZM72.4304 12.5745C72.4604 10.9588 71.0974 9.70411 69.4974 9.70411V11.2041C70.3373 11.2041 70.9437 11.8472 70.9307 12.5467L72.4304 12.5745ZM77.3099 9.70411C75.6965 9.70411 74.3766 10.9681 74.3766 12.5606H75.8766C75.8766 11.8378 76.4831 11.2041 77.3099 11.2041V9.70411ZM74.3766 12.5606C74.3766 14.1579 75.7229 15.4172 77.3099 15.4172V13.9172C76.4997 13.9172 75.8766 13.2788 75.8766 12.5606H74.3766ZM77.3099 15.4172C78.9233 15.4172 80.243 14.153 80.243 12.5606H78.743C78.743 13.2836 78.1365 13.9172 77.3099 13.9172V15.4172ZM80.243 12.5606C80.243 10.9682 78.9233 9.70411 77.3099 9.70411V11.2041C78.1366 11.2041 78.743 11.8377 78.743 12.5606H80.243ZM66.6836 5.63365C69.2735 4.38133 71.4079 3.78435 73.5041 3.78343C75.5999 3.78251 77.7313 4.37742 80.315 5.63302L80.9707 4.28389C78.2646 2.96884 75.9031 2.28238 73.5034 2.28343C71.1041 2.28448 68.7406 2.97282 66.0306 4.28325L66.6836 5.63365Z" fill="white"/>
<path fill-rule="evenodd" clip-rule="evenodd" d="M128.559 10.5C128.559 8.81885 129.069 7.17547 130.024 5.77765C130.98 4.37983 132.338 3.29037 133.928 2.64702C135.517 2.00368 137.266 1.83535 138.953 2.16332C140.64 2.4913 142.19 3.30084 143.406 4.48959C144.622 5.67834 145.451 7.19289 145.786 8.84173C146.122 10.4906 145.95 12.1996 145.291 13.7528C144.633 15.306 143.518 16.6335 142.088 17.5675C140.658 18.5015 138.976 19 137.256 19C135.611 19.0029 133.998 18.547 132.608 17.686C132.485 17.6096 132.346 17.5599 132.201 17.5404C132.056 17.5209 131.909 17.532 131.768 17.573L128.821 18.432L129.932 15.895C129.996 15.7473 130.023 15.5866 130.011 15.4264C129.998 15.2663 129.947 15.1115 129.86 14.975C129.007 13.6316 128.556 12.0813 128.559 10.5ZM137.256 0C131.322 0 126.512 4.701 126.512 10.5C126.512 12.338 126.996 14.068 127.847 15.573L126.082 19.607C126.006 19.7817 125.982 19.9741 126.013 20.1617C126.045 20.3492 126.13 20.5241 126.26 20.6658C126.389 20.8076 126.558 20.9104 126.745 20.9621C126.932 21.0138 127.13 21.0124 127.316 20.958L131.921 19.616C133.545 20.5254 135.384 21.0027 137.256 21C143.19 21 148 16.299 148 10.5C148 4.701 143.19 0 137.256 0ZM139.602 12.682L138.257 13.608C137.515 13.1911 136.835 12.6789 136.233 12.085C135.587 11.4544 135.028 10.7437 134.571 9.97099L135.425 9.262C135.603 9.11438 135.725 8.9117 135.768 8.6876C135.812 8.4635 135.777 8.23146 135.667 8.03L134.578 6.03C134.506 5.89717 134.404 5.78204 134.279 5.6932C134.155 5.60435 134.012 5.54408 133.86 5.51688C133.709 5.48967 133.553 5.49624 133.404 5.53608C133.256 5.57593 133.118 5.64802 133.002 5.747L132.679 6.022C131.902 6.684 131.443 7.772 131.824 8.87399C132.436 10.6171 133.449 12.1997 134.786 13.5C136.641 15.313 138.526 16.027 139.629 16.305C140.517 16.528 141.357 16.229 141.95 15.757L142.554 15.275C142.682 15.1734 142.782 15.0432 142.847 14.8956C142.913 14.7479 142.94 14.5871 142.928 14.4268C142.916 14.2664 142.865 14.1113 142.778 13.9745C142.692 13.8377 142.573 13.7233 142.432 13.641L140.715 12.641C140.545 12.542 140.349 12.4932 140.152 12.5004C139.954 12.5077 139.763 12.5708 139.601 12.682H139.602Z" fill="white"/>
<path d="M210 1L188 9.33333L194.286 12.6667L203.714 6L197.429 14.3333L206.857 21L210 1Z" stroke="white" stroke-width="1.5" stroke-linejoin="round"/>
<path fill-rule="evenodd" clip-rule="evenodd" d="M250 4.2C250 3.08609 250.485 2.0178 251.347 1.23015C252.21 0.442499 253.38 0 254.6 0H268.4C269.62 0 270.79 0.442499 271.653 1.23015C272.515 2.0178 273 3.08609 273 4.2V16.8C273 17.9139 272.515 18.9822 271.653 19.7698C270.79 20.5575 269.62 21 268.4 21H254.6C253.38 21 252.21 20.5575 251.347 19.7698C250.485 18.9822 250 17.9139 250 16.8V4.2ZM254.6 2.1C253.99 2.1 253.405 2.32125 252.974 2.71508C252.542 3.1089 252.3 3.64305 252.3 4.2V16.8C252.3 17.357 252.542 17.8911 252.974 18.2849C253.405 18.6787 253.99 18.9 254.6 18.9H268.4C269.01 18.9 269.595 18.6787 270.026 18.2849C270.458 17.8911 270.7 17.357 270.7 16.8V4.2C270.7 3.64305 270.458 3.1089 270.026 2.71508C269.595 2.32125 269.01 2.1 268.4 2.1H254.6ZM261.5 7.35C260.585 7.35 259.707 7.68187 259.06 8.27261C258.413 8.86335 258.05 9.66457 258.05 10.5C258.05 11.3354 258.413 12.1366 259.06 12.7274C259.707 13.3181 260.585 13.65 261.5 13.65C262.415 13.65 263.293 13.3181 263.94 12.7274C264.587 12.1366 264.95 11.3354 264.95 10.5C264.95 9.66457 264.587 8.86335 263.94 8.27261C263.293 7.68187 262.415 7.35 261.5 7.35ZM255.75 10.5C255.75 9.10761 256.356 7.77225 257.434 6.78769C258.512 5.80312 259.975 5.25 261.5 5.25C263.025 5.25 264.488 5.80312 265.566 6.78769C266.644 7.77225 267.25 9.10761 267.25 10.5C267.25 11.8924 266.644 13.2277 265.566 14.2123C264.488 15.1969 263.025 15.75 261.5 15.75C259.975 15.75 258.512 15.1969 257.434 14.2123C256.356 13.2277 255.75 11.8924 255.75 10.5ZM267.825 6.3C268.282 6.3 268.721 6.13406 269.045 5.83869C269.368 5.54332 269.55 5.14272 269.55 4.725C269.55 4.30728 269.368 3.90668 269.045 3.61131C268.721 3.31594 268.282 3.15 267.825 3.15C267.368 3.15 266.929 3.31594 266.605 3.61131C266.282 3.90668 266.1 4.30728 266.1 4.725C266.1 5.14272 266.282 5.54332 266.605 5.83869C266.929 6.13406 267.368 6.3 267.825 6.3Z" fill="white"/>
<path d="M323 20C317.477 20 313 15.7467 313 10.5C313 5.2533 317.477 1 323 1C328.523 1 333 5.2533 333 10.5C333 15.7467 328.523 20 323 20ZM323 20V8.6C323 7.55066 323.895 6.7 325 6.7H326.5M319.5 12.4H326.5" stroke="white" stroke-width="2"/>
</svg>
